<?xml version="1.0" standalone="no"?>
<!DOCTYPE svg PUBLIC "-//W3C//DTD SVG 20010904//EN"
 "http://www.w3.org/TR/2001/REC-SVG-20010904/DTD/svg10.dtd">
<svg version="1.0" xmlns="http://www.w3.org/2000/svg"
 width="512.000000pt" height="512.000000pt" viewBox="0 0 512.000000 512.000000"
 preserveAspectRatio="xMidYMid meet">
<metadata>
Created by potrace 1.14, written by Peter Selinger 2001-2017
</metadata>
<g transform="translate(0.000000,512.000000) scale(0.100000,-0.100000)"
fill="#000000" stroke="none">
<path d="M476 5099 c-214 -53 -378 -208 -453 -429 -17 -53 -18 -142 -21 -2077
-3 -2259 -8 -2097 69 -2252 80 -161 246 -289 424 -326 60 -13 358 -15 2071
-15 1959 0 2002 0 2078 20 179 45 328 164 405 320 76 155 71 -3 71 2220 0
1713 -2 2005 -15 2065 -38 180 -163 344 -326 424 -154 76 5 71 -2224 70 -1941
0 -2002 -1 -2079 -20z m1419 -1094 l0 -110 -107 -3 -107 -3 -3 -107 -3 -107
-110 -5 -110 -5 0 -995 0 -995 107 -3 107 -3 3 -107 3 -107 333 -3 332 -2 0
105 0 105 -212 0 c-117 0 -218 4 -225 8 -8 5 -13 44 -15 112 l-3 105 -108 3
-107 3 2 222 3 222 110 0 110 0 3 -107 3 -108 77 -1 c42 -1 84 -2 92 -3 8 -2
23 -3 32 -4 15 -2 18 -16 20 -109 l3 -108 440 0 440 0 3 107 3 107 107 3 107
3 5 110 5 110 105 0 105 0 3 -222 2 -222 -107 -3 -108 -3 -3 -107 -3 -108
-217 -2 -217 -3 -3 -107 -3 -108 330 0 330 0 3 108 3 107 108 3 107 3 0 999 0
999 -107 3 -108 3 -3 107 -3 107 -107 3 -107 3 0 110 0 110 220 0 220 0 3
-222 2 -222 108 -3 107 -3 0 -1110 0 -1110 -107 -3 -107 -3 -3 -107 -3 -107
-445 0 -445 0 -3 108 -3 107 -219 0 -219 0 -3 -107 -3 -108 -442 -3 -442 -2
-3 107 -3 108 -107 3 c-102 3 -108 4 -113 25 -3 12 -4 512 -3 1112 l3 1090
110 5 110 5 3 223 2 222 223 -2 222 -3 0 -110z m1103 -113 c9 -6 12 -36 10
-113 l-3 -104 -445 0 -445 0 -3 99 c-2 64 1 103 9 112 9 12 85 14 438 14 234
0 432 -4 439 -8z m-883 -667 l0 -220 -110 0 -110 0 -3 107 -3 107 -107 3 -107
3 -3 99 c-1 55 0 106 2 113 5 11 49 13 223 11 l218 -3 0 -220z m1338 212 c8
-21 -1 -199 -10 -208 -5 -5 -53 -10 -108 -11 l-100 -3 -5 -105 -5 -105 -107
-3 -108 -3 0 226 0 225 219 0 c174 0 220 -3 224 -13z m-665 -871 c2 -147 -1
-213 -9 -222 -10 -12 -52 -14 -223 -12 l-211 3 -3 223 -2 222 222 -2 223 -3 3
-209z"/>
</g>
</svg>
